<svg xmlns="http://www.w3.org/2000/svg" xmlns:xlink="http://www.w3.org/1999/xlink" width="500" zoomAndPan="magnify" viewBox="0 0 375 374.999991" height="500" preserveAspectRatio="xMidYMid meet" version="1.0"><defs><g/><clipPath id="324d0fd003"><path d="M 37.5 37.5 L 337.5 37.5 L 337.5 337.5 L 37.5 337.5 Z M 37.5 37.5 " clip-rule="nonzero"/></clipPath><clipPath id="bb2d7295f5"><path d="M 93.75 37.5 L 281.25 37.5 C 312.316406 37.5 337.5 62.683594 337.5 93.75 L 337.5 281.25 C 337.5 312.316406 312.316406 337.5 281.25 337.5 L 93.75 337.5 C 62.683594 337.5 37.5 312.316406 37.5 281.25 L 37.5 93.75 C 37.5 62.683594 62.683594 37.5 93.75 37.5 Z M 93.75 37.5 " clip-rule="nonzero"/></clipPath></defs><g clip-path="url(#324d0fd003)"><g clip-path="url(#bb2d7295f5)"><path stroke-linecap="butt" transform="matrix(0.75, 0, 0, 0.75, 37.500002, 37.499998)" fill="none" stroke-linejoin="miter" d="M 75.000002 0.00000328333 L 325.000019 0.00000328333 C 366.421896 0.00000328333 400.000024 33.57813 400.000024 75.000008 L 400.000024 325.000025 C 400.000024 366.421902 366.421896 400.00003 325.000019 400.00003 L 75.000002 400.00003 C 33.578124 400.00003 -0.00000271667 366.421902 -0.00000271667 325.000025 L -0.00000271667 75.000008 C -0.00000271667 33.57813 33.578124 0.00000328333 75.000002 0.00000328333 Z M 75.000002 0.00000328333 " stroke="#000000" stroke-width="40" stroke-opacity="1" stroke-miterlimit="4"/></g></g><g fill="#000000" fill-opacity="1"><g transform="translate(179.198663, 243.233729)"><g><path d="M 3.039062 0 L 30.300781 0 L 30.300781 -1.011719 C 21.585938 -1.011719 20.976562 -8.207031 20.976562 -28.171875 L 20.976562 -98.707031 C 27.160156 -100.933594 32.023438 -101.949219 39.523438 -101.949219 C 58.371094 -101.949219 70.230469 -91.613281 70.230469 -74.789062 C 70.230469 -62.628906 62.019531 -50.164062 49.351562 -50.164062 C 39.929688 -50.164062 35.265625 -55.941406 29.289062 -55.941406 C 27.464844 -55.941406 25.742188 -54.925781 25.742188 -52.496094 C 25.742188 -45.601562 36.484375 -45.199219 46.3125 -30.402344 C 62.324219 -6.382812 65.160156 0 69.824219 0 L 85.328125 0 L 85.328125 -1.011719 C 73.777344 -1.011719 64.351562 -19.050781 56.34375 -31.515625 C 48.136719 -44.285156 26.753906 -45.703125 26.753906 -52.292969 C 26.753906 -54.621094 28.476562 -54.925781 29.691406 -54.925781 C 33.949219 -54.925781 40.433594 -48.441406 49.960938 -48.441406 C 67.59375 -48.441406 78.945312 -61.007812 78.945312 -74.890625 C 78.945312 -91.410156 66.882812 -103.367188 45.300781 -103.367188 C 33.542969 -103.367188 26.347656 -101.339844 15.199219 -101.339844 L 3.039062 -101.339844 L 3.039062 -100.328125 C 11.753906 -100.328125 12.363281 -93.132812 12.363281 -73.167969 L 12.363281 -28.171875 C 12.363281 -8.207031 11.753906 -1.011719 3.039062 -1.011719 Z M 3.039062 0 "/></g></g></g><g fill="#000000" fill-opacity="1"><g transform="translate(106.130567, 243.400195)"><g><path d="M 3.039062 0 L 11.148438 0 C 21.789062 0 30.503906 2.027344 39.421875 2.027344 C 70.632812 2.027344 85.429688 -22.902344 85.429688 -50.671875 C 85.429688 -78.4375 70.632812 -103.367188 39.421875 -103.367188 C 30.503906 -103.367188 21.789062 -101.339844 11.148438 -101.339844 L 3.039062 -101.339844 L 3.039062 -100.328125 C 11.753906 -100.328125 12.363281 -93.132812 12.363281 -73.167969 L 12.363281 -28.171875 C 12.363281 -8.207031 11.753906 -1.011719 3.039062 -1.011719 Z M 20.976562 -99.109375 C 26.855469 -100.933594 32.734375 -101.949219 39.320312 -101.949219 C 64.351562 -101.949219 76.714844 -78.335938 76.714844 -50.671875 C 76.714844 -23.003906 64.351562 0.609375 39.320312 0.609375 C 32.734375 0.609375 26.855469 -0.40625 20.976562 -2.230469 Z M 20.976562 -99.109375 "/></g></g></g></svg>